<svg aria-hidden="true" style="position: absolute; width: 0; height: 0; overflow: hidden;" version="1.1" xmlns="http://www.w3.org/2000/svg" xmlns:xlink="http://www.w3.org/1999/xlink">
<defs>
<symbol id="icon-arrow" viewBox="0 0 32 32">
<path fill="#cdc9c4" style="fill: var(--color1, #cdc9c4)" d="M10.586 3.272c-0.375 0.375-0.586 0.884-0.586 1.414s0.211 1.039 0.586 1.414l9.9 9.9-9.9 9.9c-0.364 0.377-0.566 0.882-0.561 1.407s0.215 1.026 0.586 1.397c0.371 0.371 0.872 0.581 1.397 0.586s1.030-0.197 1.407-0.561l11.314-11.314c0.375-0.375 0.586-0.884 0.586-1.414s-0.211-1.039-0.586-1.414l-11.314-11.314c-0.375-0.375-0.884-0.586-1.414-0.586s-1.039 0.211-1.414 0.586z"></path>
</symbol>
<symbol id="icon-location-icon" viewBox="0 0 32 32">
<path fill="#906c3b" style="fill: var(--color2, #906c3b)" d="M16 4.667c-2.122 0-4.157 0.843-5.657 2.343s-2.343 3.535-2.343 5.657c0 1.885 1.069 3.929 2.591 5.845 1.499 1.888 3.319 3.505 4.567 4.519 0.237 0.196 0.535 0.304 0.843 0.304s0.606-0.108 0.843-0.304c1.248-1.013 3.068-2.631 4.567-4.52 1.524-1.913 2.591-3.957 2.591-5.844 0-2.122-0.843-4.157-2.343-5.657s-3.535-2.343-5.657-2.343zM6 12.667c0-2.652 1.054-5.196 2.929-7.071s4.419-2.929 7.071-2.929c2.652 0 5.196 1.054 7.071 2.929s2.929 4.419 2.929 7.071c0 2.576-1.419 5.067-3.024 7.088-1.627 2.049-3.571 3.772-4.873 4.829-1.235 1-2.971 1-4.205 0-1.303-1.057-3.247-2.78-4.873-4.829-1.605-2.020-3.024-4.512-3.024-7.088zM16 10.667c-0.53 0-1.039 0.211-1.414 0.586s-0.586 0.884-0.586 1.414c0 0.53 0.211 1.039 0.586 1.414s0.884 0.586 1.414 0.586c0.53 0 1.039-0.211 1.414-0.586s0.586-0.884 0.586-1.414c0-0.53-0.211-1.039-0.586-1.414s-0.884-0.586-1.414-0.586zM12 12.667c0-1.061 0.421-2.078 1.172-2.828s1.768-1.172 2.828-1.172c1.061 0 2.078 0.421 2.828 1.172s1.172 1.768 1.172 2.828-0.421 2.078-1.172 2.828c-0.75 0.75-1.768 1.172-2.828 1.172s-2.078-0.421-2.828-1.172c-0.75-0.75-1.172-1.768-1.172-2.828zM23.576 21.128c-0.485 0.577-0.987 1.123-1.485 1.632 0.476 0.133 0.916 0.28 1.32 0.44 0.928 0.364 1.609 0.773 2.043 1.179 0.433 0.403 0.547 0.725 0.547 0.955s-0.113 0.552-0.547 0.955c-0.433 0.404-1.115 0.813-2.041 1.179-1.848 0.728-4.467 1.2-7.412 1.2s-5.564-0.472-7.412-1.2c-0.927-0.365-1.608-0.775-2.043-1.179-0.432-0.403-0.545-0.725-0.545-0.955s0.113-0.552 0.547-0.955c0.433-0.404 1.115-0.813 2.041-1.179 0.406-0.16 0.846-0.307 1.32-0.44-0.497-0.509-1-1.055-1.484-1.632-0.195 0.068-0.384 0.139-0.569 0.211-1.064 0.419-1.992 0.943-2.672 1.576-0.68 0.635-1.183 1.451-1.183 2.419s0.501 1.784 1.183 2.419c0.68 0.632 1.608 1.156 2.672 1.576 2.135 0.84 5.015 1.339 8.145 1.339s6.011-0.499 8.144-1.339c1.065-0.42 1.993-0.944 2.673-1.576 0.68-0.635 1.183-1.451 1.183-2.419s-0.501-1.784-1.183-2.419c-0.68-0.633-1.608-1.157-2.673-1.576-0.184-0.073-0.373-0.143-0.568-0.211z"></path>
</symbol>
<symbol id="icon-mail-icon" viewBox="0 0 32 32">
<path fill="#906c3b" style="fill: var(--color2, #906c3b)" d="M26.666 6.4c1.178 0 2.134 0.955 2.134 2.134v14.932c0 1.178-0.955 2.134-2.134 2.134h-21.332c-1.178 0-2.134-0.955-2.134-2.134v-14.932c0-1.178 0.955-2.134 2.134-2.134h21.332zM12.375 17.7l-6.285 6.211h19.616l-6.217-6.147-3.489 2.415-3.625-2.479zM27.059 12.534l-6.139 4.244 6.139 6.062v-10.307zM4.942 12.612v10.030l5.998-5.928-5.998-4.102zM26.646 8.091h-21.272c-0.117-0.005-0.231 0.034-0.32 0.11-0.039 0.035-0.070 0.079-0.089 0.129s-0.026 0.103-0.020 0.155v2.074l11.055 7.561 11.064-7.635v-1.91c0.001-0.172-0.038-0.296-0.118-0.374-0.039-0.038-0.086-0.068-0.138-0.087s-0.107-0.027-0.161-0.023z"></path>
</symbol>
<symbol id="icon-car-icon" viewBox="0 0 43 32">
<path fill="none" stroke="#f0f0f0" style="stroke: var(--color3, #f0f0f0)" stroke-linejoin="round" stroke-linecap="round" stroke-miterlimit="4" stroke-width="2.8444" d="M7.881 26.37c0 1.1 0.437 2.155 1.215 2.933s1.833 1.215 2.933 1.215c1.1 0 2.155-0.437 2.933-1.215s1.215-1.833 1.215-2.933-0.437-2.155-1.215-2.933c-0.778-0.778-1.833-1.215-2.933-1.215s-2.155 0.437-2.933 1.215c-0.778 0.778-1.215 1.833-1.215 2.933zM28.622 26.37c0 1.1 0.437 2.155 1.215 2.933s1.833 1.215 2.933 1.215 2.155-0.437 2.933-1.215c0.778-0.778 1.215-1.833 1.215-2.933s-0.437-2.155-1.215-2.933c-0.778-0.778-1.833-1.215-2.933-1.215s-2.155 0.437-2.933 1.215c-0.778 0.778-1.215 1.833-1.215 2.933z"></path>
<path fill="none" stroke="#f0f0f0" style="stroke: var(--color3, #f0f0f0)" stroke-linejoin="round" stroke-linecap="round" stroke-miterlimit="4" stroke-width="2.8444" d="M7.881 26.37h-4.148v-8.296M1.659 1.482h22.815v24.889M16.178 26.37h12.444M36.918 26.37h4.148v-12.444M41.067 13.926h-16.593M41.067 13.926l-6.222-10.37h-10.37M3.733 9.778h8.296"></path>
</symbol>
<symbol id="icon-bottle-icon" viewBox="0 0 29 32">
<path fill="#f0f0f0" style="fill: var(--color3, #f0f0f0)" d="M26 8.514v-7.192c0-0.299-0.119-0.587-0.331-0.798s-0.499-0.331-0.798-0.331h-3.387v2.258h2.258v7.587c0 0 3.387 0.572 3.387 4.832v14.677h-3.387v2.258h4.516c0.299 0 0.587-0.119 0.798-0.331s0.331-0.499 0.331-0.798v-15.806c0-3.897-2.182-5.672-3.387-6.356zM18.097 8.514v-7.192c0-0.299-0.119-0.587-0.331-0.798s-0.499-0.331-0.798-0.331h-3.387v2.258h2.258v7.587c0 0 3.387 0.572 3.387 4.832v14.677h-3.387v2.258h4.516c0.299 0 0.587-0.119 0.798-0.331s0.331-0.499 0.331-0.798v-15.806c0-3.897-2.182-5.672-3.387-6.356zM10.194 8.514v-7.192c0-0.299-0.119-0.587-0.331-0.798s-0.499-0.331-0.798-0.331h-4.516c-0.299 0-0.587 0.119-0.798 0.331s-0.331 0.499-0.331 0.798v7.192c-1.205 0.684-3.387 2.459-3.387 6.356v15.806c0 0.299 0.119 0.587 0.331 0.798s0.499 0.331 0.798 0.331h11.29c0.299 0 0.587-0.119 0.798-0.331s0.331-0.499 0.331-0.798v-15.806c0-3.897-2.182-5.672-3.387-6.356zM11.323 29.548h-9.032v-14.677c0-4.259 3.387-4.832 3.387-4.832v-7.587h2.258v7.587c0 0 3.387 0.574 3.387 4.832v14.677z"></path>
</symbol>
<symbol id="icon-chek-icon" viewBox="0 0 29 32">
<path fill="#f0f0f0" style="fill: var(--color3, #f0f0f0)" d="M13.491 0.222c0.635-0.238 1.329-0.269 1.983-0.088l0.277 0.088 11.264 4.224c0.571 0.214 1.070 0.586 1.437 1.073s0.59 1.068 0.64 1.676l0.011 0.266v8.63c0 2.608-0.704 5.167-2.038 7.407s-3.248 4.080-5.54 5.323l-0.428 0.224-5.397 2.699c-0.297 0.148-0.622 0.234-0.954 0.251s-0.663-0.034-0.974-0.151l-0.232-0.1-5.397-2.699c-2.332-1.166-4.307-2.94-5.714-5.136s-2.197-4.729-2.283-7.336l-0.008-0.483v-8.63c0-0.61 0.173-1.207 0.499-1.722s0.792-0.927 1.343-1.188l0.246-0.105 11.264-4.224zM14.621 3.236l-11.264 4.224v8.63c0 2.020 0.543 4.002 1.572 5.74s2.506 3.167 4.277 4.138l0.378 0.198 5.037 2.518 5.037-2.518c1.807-0.903 3.337-2.276 4.432-3.973s1.712-3.659 1.788-5.677l0.008-0.425v-8.63l-11.264-4.224zM20.145 10.575c0.29-0.289 0.678-0.456 1.087-0.469s0.807 0.131 1.113 0.401c0.307 0.27 0.499 0.647 0.538 1.054s-0.079 0.814-0.329 1.137l-0.134 0.151-8.423 8.424c-0.307 0.307-0.716 0.49-1.149 0.515s-0.86-0.11-1.201-0.379l-0.154-0.137-3.869-3.869c-0.292-0.289-0.462-0.678-0.476-1.089s0.13-0.81 0.401-1.118c0.271-0.308 0.65-0.501 1.059-0.538s0.817 0.082 1.14 0.335l0.151 0.134 2.845 2.845 7.399-7.399z"></path>
</symbol>
<symbol id="icon-list-icon" viewBox="0 0 21 32">
<path fill="#f0f0f0" style="fill: var(--color3, #f0f0f0)" d="M18.137 7.587c-1.74-2.949-4.211-5.399-7.174-7.115l-0.527-0.305-0.527 0.305c-3.013 1.739-5.515 4.241-7.254 7.254s-2.654 6.431-2.653 9.91c0 0.227 0.004 0.457 0.012 0.684 0.105 3.083 1.284 5.677 3.409 7.501 1.627 1.396 3.713 2.249 5.961 2.452v3.636h2.105v-16.842h-2.106v11.087c-3.557-0.412-7.097-2.925-7.266-7.906-0.007-0.204-0.011-0.41-0.011-0.613 0.006-3.004 0.773-5.957 2.23-8.585s3.555-4.843 6.099-6.44c2.544 1.597 4.643 3.812 6.099 6.44s2.224 5.581 2.23 8.585c0 0.203-0.004 0.409-0.011 0.613-0.135 3.985-2.428 6.39-5.161 7.404v2.228c1.418-0.402 2.733-1.104 3.856-2.059 2.126-1.825 3.304-4.419 3.409-7.501 0.008-0.227 0.012-0.458 0.012-0.684 0.002-3.533-0.942-7.003-2.733-10.049z"></path>
</symbol>
<symbol id="icon-youtube" viewBox="0 0 32 32">
<path fill="#ff0302" style="fill: var(--color4, #ff0302)" d="M31.363 8.247c-0.181-0.681-0.538-1.302-1.034-1.802s-1.116-0.86-1.795-1.045c-2.502-0.673-12.502-0.673-12.502-0.673s-10 0-12.502 0.673c-0.68 0.185-1.299 0.546-1.795 1.045s-0.853 1.121-1.034 1.802c-0.669 2.513-0.669 7.753-0.669 7.753s0 5.24 0.669 7.753c0.181 0.681 0.537 1.302 1.034 1.802s1.116 0.86 1.795 1.046c2.502 0.673 12.502 0.673 12.502 0.673s10 0 12.502-0.673c0.68-0.185 1.299-0.546 1.795-1.046s0.853-1.121 1.034-1.802c0.669-2.513 0.669-7.753 0.669-7.753s0-5.24-0.669-7.753z"></path>
<path fill="#fefefe" style="fill: var(--color5, #fefefe)" d="M12.759 20.758v-9.516l8.364 4.758-8.364 4.758z"></path>
</symbol>
<symbol id="icon-tik-tok" viewBox="0 0 32 32">
<path fill="#ff004f" style="fill: var(--color6, #ff004f)" d="M22.902 11.551c2.058 1.476 4.579 2.345 7.301 2.345v-5.258c-0.515 0-1.029-0.054-1.533-0.161v4.139c-2.723 0-5.243-0.869-7.301-2.345v10.73c0 5.368-4.336 9.719-9.684 9.719-1.996 0-3.85-0.605-5.391-1.644 1.759 1.805 4.211 2.924 6.924 2.924 5.349 0 9.685-4.351 9.685-9.719v-10.73h-0zM24.794 6.247c-1.052-1.153-1.742-2.643-1.892-4.29v-0.676h-1.453c0.366 2.094 1.613 3.883 3.345 4.967zM9.676 24.957c-0.588-0.773-0.905-1.719-0.904-2.691 0-2.455 1.983-4.445 4.43-4.445 0.456-0 0.909 0.070 1.344 0.208v-5.375c-0.508-0.070-1.020-0.1-1.533-0.089v4.184c-0.435-0.138-0.888-0.209-1.344-0.208-2.447 0-4.43 1.99-4.43 4.446 0 1.736 0.991 3.239 2.437 3.971z"></path>
<path fill="#000" style="fill: var(--color7, #000)" d="M21.369 10.271c2.058 1.476 4.579 2.345 7.301 2.345v-4.139c-1.52-0.325-2.865-1.122-3.877-2.23-1.731-1.084-2.979-2.873-3.345-4.967h-3.817v21.001c-0.009 2.448-1.988 4.431-4.43 4.431-1.439 0-2.717-0.688-3.526-1.754-1.446-0.732-2.437-2.235-2.437-3.971 0-2.455 1.983-4.446 4.43-4.446 0.469 0 0.921 0.073 1.345 0.208v-4.184c-5.254 0.109-9.48 4.418-9.48 9.716 0 2.645 1.052 5.043 2.76 6.795 1.541 1.038 3.396 1.644 5.391 1.644 5.348 0 9.684-4.351 9.684-9.719v-10.73h-0z"></path>
<path fill="#00f2ea" style="fill: var(--color8, #00f2ea)" d="M28.67 8.477v-1.119c-1.37 0.002-2.714-0.383-3.877-1.111 1.029 1.131 2.385 1.911 3.877 2.231zM21.449 1.28c-0.035-0.2-0.062-0.401-0.080-0.604v-0.676h-5.27v21.001c-0.008 2.448-1.988 4.43-4.43 4.43-0.717 0-1.394-0.171-1.993-0.474 0.809 1.066 2.088 1.754 3.526 1.754 2.441 0 4.421-1.982 4.43-4.43v-21.001h3.817zM13.014 12.565v-1.191c-0.44-0.060-0.884-0.091-1.329-0.091-5.349-0-9.685 4.351-9.685 9.718 0 3.365 1.704 6.331 4.294 8.075-1.708-1.752-2.76-4.15-2.76-6.795 0-5.299 4.226-9.607 9.48-9.716z"></path>
</symbol>
<symbol id="icon-facebook" viewBox="0 0 32 32">
<path fill="#0866ff" style="fill: var(--color9, #0866ff)" d="M32 16c0-8.836-7.163-16-16-16s-16 7.164-16 16c0 7.503 5.166 13.8 12.135 15.529v-10.639h-3.299v-4.89h3.299v-2.107c0-5.446 2.465-7.97 7.811-7.97 1.014 0 2.763 0.199 3.478 0.397v4.432c-0.378-0.040-1.034-0.059-1.848-0.059-2.623 0-3.637 0.994-3.637 3.578v1.729h5.226l-0.898 4.89h-4.328v10.993c7.923-0.957 14.061-7.702 14.061-15.883h-0.001z"></path>
<path fill="#fff" style="fill: var(--color10, #fff)" d="M22.267 20.89l0.898-4.89h-5.226v-1.729c0-2.584 1.014-3.578 3.637-3.578 0.815 0 1.471 0.020 1.848 0.059v-4.432c-0.716-0.199-2.465-0.397-3.478-0.397-5.347 0-7.811 2.524-7.811 7.97v2.107h-3.299v4.89h3.299v10.639c1.238 0.307 2.532 0.471 3.865 0.471 0.656 0 1.303-0.040 1.939-0.117v-10.993h4.329z"></path>
</symbol>
<symbol id="icon-insta" viewBox="0 0 32 32">
<path d="M16 2.881c4.275 0 4.781 0.019 6.462 0.094 1.563 0.069 2.406 0.331 2.969 0.55 0.744 0.288 1.281 0.638 1.837 1.194 0.563 0.563 0.906 1.094 1.194 1.838 0.219 0.563 0.481 1.412 0.55 2.969 0.075 1.688 0.094 2.194 0.094 6.463 0 4.275-0.019 4.781-0.094 6.463-0.069 1.563-0.331 2.406-0.55 2.969-0.288 0.744-0.637 1.281-1.194 1.837-0.563 0.563-1.094 0.906-1.837 1.194-0.563 0.219-1.413 0.481-2.969 0.55-1.688 0.075-2.194 0.094-6.463 0.094-4.275 0-4.781-0.019-6.463-0.094-1.563-0.069-2.406-0.331-2.969-0.55-0.744-0.288-1.281-0.637-1.838-1.194-0.563-0.563-0.906-1.094-1.194-1.837-0.219-0.563-0.481-1.413-0.55-2.969-0.075-1.688-0.094-2.194-0.094-6.463 0-4.275 0.019-4.781 0.094-6.463 0.069-1.563 0.331-2.406 0.55-2.969 0.288-0.744 0.638-1.281 1.194-1.838 0.563-0.563 1.094-0.906 1.838-1.194 0.563-0.219 1.412-0.481 2.969-0.55 1.681-0.075 2.188-0.094 6.463-0.094zM16 0c-4.344 0-4.887 0.019-6.594 0.094-1.7 0.075-2.869 0.35-3.881 0.744-1.056 0.412-1.95 0.956-2.837 1.85-0.894 0.888-1.438 1.781-1.85 2.831-0.394 1.019-0.669 2.181-0.744 3.881-0.075 1.713-0.094 2.256-0.094 6.6s0.019 4.887 0.094 6.594c0.075 1.7 0.35 2.869 0.744 3.881 0.413 1.056 0.956 1.95 1.85 2.837 0.887 0.887 1.781 1.438 2.831 1.844 1.019 0.394 2.181 0.669 3.881 0.744 1.706 0.075 2.25 0.094 6.594 0.094s4.887-0.019 6.594-0.094c1.7-0.075 2.869-0.35 3.881-0.744 1.050-0.406 1.944-0.956 2.831-1.844s1.438-1.781 1.844-2.831c0.394-1.019 0.669-2.181 0.744-3.881 0.075-1.706 0.094-2.25 0.094-6.594s-0.019-4.887-0.094-6.594c-0.075-1.7-0.35-2.869-0.744-3.881-0.394-1.063-0.938-1.956-1.831-2.844-0.887-0.887-1.781-1.438-2.831-1.844-1.019-0.394-2.181-0.669-3.881-0.744-1.712-0.081-2.256-0.1-6.6-0.1z"></path>
<path d="M16 7.781c-4.537 0-8.219 3.681-8.219 8.219s3.681 8.219 8.219 8.219c4.538 0 8.219-3.681 8.219-8.219s-3.681-8.219-8.219-8.219zM16 21.331c-2.944 0-5.331-2.387-5.331-5.331s2.388-5.331 5.331-5.331c2.944 0 5.331 2.388 5.331 5.331s-2.387 5.331-5.331 5.331z"></path>
<path d="M26.462 7.456c0 1.063-0.863 1.919-1.919 1.919-1.063 0-1.919-0.863-1.919-1.919 0-1.063 0.863-1.919 1.919-1.919s1.919 0.862 1.919 1.919z"></path>
</symbol>
<symbol id="icon-burger" viewBox="0 0 32 32">
<path d="M4.799 8.001c0-0.424 0.169-0.831 0.469-1.131s0.707-0.469 1.131-0.469h19.2c0.424 0 0.831 0.169 1.131 0.469s0.469 0.707 0.469 1.131-0.169 0.831-0.469 1.131c-0.3 0.3-0.707 0.469-1.131 0.469h-19.2c-0.424 0-0.831-0.169-1.131-0.469s-0.469-0.707-0.469-1.131z"></path>
<path d="M4.799 16.001c0-0.424 0.169-0.831 0.469-1.131s0.707-0.469 1.131-0.469h19.2c0.424 0 0.831 0.169 1.131 0.469s0.469 0.707 0.469 1.131c0 0.424-0.169 0.831-0.469 1.131s-0.707 0.469-1.131 0.469h-19.2c-0.424 0-0.831-0.169-1.131-0.469s-0.469-0.707-0.469-1.131z"></path>
<path d="M4.799 24.001c0-0.424 0.169-0.831 0.469-1.131s0.707-0.469 1.131-0.469h19.2c0.424 0 0.831 0.169 1.131 0.469s0.469 0.707 0.469 1.131c0 0.424-0.169 0.831-0.469 1.131s-0.707 0.469-1.131 0.469h-19.2c-0.424 0-0.831-0.169-1.131-0.469s-0.469-0.707-0.469-1.131z"></path>
</symbol>
<symbol id="icon-check" viewBox="0 0 32 32">
<path d="M27.026 4.016c0.553-0.529 1.289-0.822 2.052-0.816s1.495 0.31 2.040 0.847c0.545 0.538 0.861 1.267 0.881 2.034s-0.257 1.513-0.773 2.078l-15.663 19.694c-0.269 0.292-0.594 0.526-0.956 0.688s-0.752 0.25-1.147 0.257c-0.396 0.007-0.789-0.066-1.156-0.214s-0.701-0.371-0.98-0.652l-10.387-10.443c-0.289-0.271-0.521-0.598-0.682-0.961s-0.247-0.755-0.254-1.152 0.066-0.792 0.214-1.161c0.148-0.369 0.368-0.703 0.648-0.984s0.613-0.503 0.979-0.652 0.759-0.222 1.155-0.215c0.395 0.007 0.785 0.094 1.146 0.256s0.686 0.395 0.956 0.686l8.22 8.26 13.633-17.464c0.025-0.030 0.051-0.059 0.078-0.087h-0.004z"></path>
</symbol>
<symbol id="icon-close" viewBox="0 0 32 32">
<path d="M32 3.223l-3.223-3.223-12.777 12.777-12.777-12.777-3.223 3.223 12.777 12.777-12.777 12.777 3.223 3.223 12.777-12.777 12.777 12.777 3.223-3.223-12.777-12.777 12.777-12.777z"></path>
</symbol>
<symbol id="icon-arrow-right" viewBox="0 0 32 32">
<path d="M19.414 27.414l10-10c0.781-0.781 0.781-2.047 0-2.828l-10-10c-0.781-0.781-2.047-0.781-2.828 0s-0.781 2.047 0 2.828l6.586 6.586h-19.172c-1.105 0-2 0.895-2 2s0.895 2 2 2h19.172l-6.586 6.586c-0.39 0.39-0.586 0.902-0.586 1.414s0.195 1.024 0.586 1.414c0.781 0.781 2.047 0.781 2.828 0z"></path>
</symbol>
<symbol id="icon-arrow-left" viewBox="0 0 32 32">
<path d="M12.586 27.414l-10-10c-0.781-0.781-0.781-2.047 0-2.828l10-10c0.781-0.781 2.047-0.781 2.828 0s0.781 2.047 0 2.828l-6.586 6.586h19.172c1.105 0 2 0.895 2 2s-0.895 2-2 2h-19.172l6.586 6.586c0.39 0.39 0.586 0.902 0.586 1.414s-0.195 1.024-0.586 1.414c-0.781 0.781-2.047 0.781-2.828 0z"></path>
</symbol>
</defs>
</svg>
